<?xml version="1.0" encoding="UTF-8" standalone="no"?>
<!-- Created with Inkscape (http://www.inkscape.org/) -->

<svg
   xmlns:dc="http://purl.org/dc/elements/1.1/"
   xmlns:cc="http://creativecommons.org/ns#"
   xmlns:rdf="http://www.w3.org/1999/02/22-rdf-syntax-ns#"
   xmlns:svg="http://www.w3.org/2000/svg"
   xmlns="http://www.w3.org/2000/svg"
   xmlns:sodipodi="http://sodipodi.sourceforge.net/DTD/sodipodi-0.dtd"
   xmlns:inkscape="http://www.inkscape.org/namespaces/inkscape"
   width="500"
   height="500"
   id="svg4545"
   version="1.1"
   inkscape:version="0.48.5 r10040"
   sodipodi:docname="book.svg">
  <defs
     id="defs4547" />
  <sodipodi:namedview
     id="base"
     pagecolor="#ffffff"
     bordercolor="#666666"
     borderopacity="1.0"
     inkscape:pageopacity="0.0"
     inkscape:pageshadow="2"
     inkscape:zoom="0.98994949"
     inkscape:cx="474.76173"
     inkscape:cy="363.75651"
     inkscape:document-units="px"
     inkscape:current-layer="layer1"
     showgrid="false"
     inkscape:window-width="1280"
     inkscape:window-height="958"
     inkscape:window-x="0"
     inkscape:window-y="923"
     inkscape:window-maximized="1" />
  <metadata
     id="metadata4550">
    <rdf:RDF>
      <cc:Work
         rdf:about="">
        <dc:format>image/svg+xml</dc:format>
        <dc:type
           rdf:resource="http://purl.org/dc/dcmitype/StillImage" />
        <dc:title></dc:title>
      </cc:Work>
    </rdf:RDF>
  </metadata>
  <g
     inkscape:label="Layer 1"
     inkscape:groupmode="layer"
     id="layer1"
     transform="translate(0,-552.36218)">
    <g
       id="g3161"
       transform="matrix(19.571429,0,0,19.571429,20.857141,-19555.466)">
      <path
         id="path3163"
         transform="translate(0,1028.4)"
         d="m 3,8 v 2 1 3 1 5 1 c 0,1.105 0.8954,2 2,2 h 14 c 1.105,0 2,-0.895 2,-2 V 20 15 11 8 H 3 z"
         inkscape:connector-curvature="0"
         style="fill:#16a085" />
      <path
         id="path3165"
         d="m 3,1035.4 v 2 1 3 1 5 1 c 0,1.1 0.8954,2 2,2 h 14 c 1.105,0 2,-0.9 2,-2 v -1 -5 -4 -3 H 3 z"
         inkscape:connector-curvature="0"
         style="fill:#ecf0f1" />
      <path
         id="path3167"
         d="m 3,1034.4 v 2 1 3 1 5 1 c 0,1.1 0.8954,2 2,2 h 14 c 1.105,0 2,-0.9 2,-2 v -1 -5 -4 -3 H 3 z"
         inkscape:connector-curvature="0"
         style="fill:#bdc3c7" />
      <path
         id="path3169"
         d="m 3,1033.4 v 2 1 3 1 5 1 c 0,1.1 0.8954,2 2,2 h 14 c 1.105,0 2,-0.9 2,-2 v -1 -5 -4 -3 H 3 z"
         inkscape:connector-curvature="0"
         style="fill:#ecf0f1" />
      <path
         id="path3171"
         transform="translate(0,1028.4)"
         d="M 5,1 C 3.8954,1 3,1.8954 3,3 v 1 4 2 1 3 1 5 1 c 0,1.105 0.8954,2 2,2 H 7 V 22 H 5.5 C 4.6716,22 4,21.328 4,20.5 4,19.672 4.6716,19 5.5,19 H 18 19 c 1.105,0 2,-0.895 2,-2 V 16 11 7 4 3 C 21,1.8954 20.105,1 19,1 H 15 5 z"
         inkscape:connector-curvature="0"
         style="fill:#16a085" />
      <path
         id="path3173"
         transform="translate(0,1028.4)"
         d="m 8,1 v 18 h 1 9 1 c 1.105,0 2,-0.895 2,-2 V 16 11 7 4 3 C 21,1.8954 20.105,1 19,1 H 15 9 8 z"
         inkscape:connector-curvature="0"
         style="fill:#1abc9c" />
    </g>
    <path
       sodipodi:type="star"
       style="fill:#ffd42a;fill-opacity:1;stroke:none"
       id="path3190"
       sodipodi:sides="6"
       sodipodi:cx="218.19295"
       sodipodi:cy="133.31464"
       sodipodi:r1="19.613615"
       sodipodi:r2="15.867748"
       sodipodi:arg1="0.20749623"
       sodipodi:arg2="0.73109501"
       inkscape:flatsided="true"
       inkscape:rounded="5.4"
       inkscape:randomized="0"
       d="m 237.38585,137.35525 c -21.8193,103.64165 87.57023,-18.32353 -13.09572,14.60123 -100.66596,32.92476 59.65375,66.67628 -19.1929,-4.04061 -78.84666,-70.716892 -27.91648,84.99981 -6.09718,-18.64184 21.81929,-103.641657 -87.57023,18.32353 13.09572,-14.60124 100.66595,-32.924759 -59.65376,-66.676278 19.1929,4.04061 78.84665,70.71689 27.91647,-84.999807 6.09718,18.64185 z"
       transform="matrix(1.3270872,0,0,1.3270872,5.4034836,586.75453)"
       inkscape:transform-center-x="1.2704596"
       inkscape:transform-center-y="-1.8947582" />
  </g>
</svg>
