<?xml version="1.0" standalone="no"?>
<!DOCTYPE svg PUBLIC "-//W3C//DTD SVG 1.1//EN" "http://www.w3.org/Graphics/SVG/1.1/DTD/svg11.dtd">
<svg xmlns="http://www.w3.org/2000/svg">
<metadata>Copyright (C) 2015 by original authors @ fontello.com</metadata>
<defs>
<font id="hobby" horiz-adv-x="1000" >
<font-face font-family="hobby" font-weight="400" font-stretch="normal" units-per-em="1000" ascent="850" descent="-150" />
<missing-glyph horiz-adv-x="1000" />
<glyph glyph-name="Volleyball" unicode="&#xe800;" d="m200 454c-48-16-102-29-134-71-22-20-19-52-25-79-10-33 11 2 21 12 32 42 77 74 128 90 16 4 32 8 25 23 29 11 21 16-6 14 0 10 4 17-9 11z m444 321c-160-1-325-78-410-216-23-37-38-78-39-121 16 3 19-11 34-10 10-28 7 9 9 21 9 80 67 146 130 194 7 7 5 42 20 16 22 10 48 27 74 37 30 12 63 21 96 28-22 9 0 32 10 10 13-14 34 0 51-2 80 6 161-6 237-31-14 17-23 41-41 52-56 15-114 23-171 22z m-434-318c-17 4-22-28-8-27 28-11 24 18 11 28l-3-1z m178 216c-9-8-29-13-27-24 96-256 194-513 323-755 20-36 40-71 62-106 15 3 30 6 45 9-117 181-199 381-281 580-40 100-78 200-115 301-2-2-5-3-7-5z m-3 11c-17-6-43-8-26-31 3-23 19 0 30 5 18 1 7 32-4 26z m193 57c-17-2-33-6-50-9 188-157 316-379 373-616 21-83 33-169 39-255 12 12 33 19 39 34-22 273-120 546-304 752-30 33-61 65-94 95l-3-1z m-28 18c-11-13-32-27-9-38 18 3 35 6 53 9-13 12-26 23-40 35-1-2-3-4-4-6z m559-663c-31-77-79-147-143-199 6-30-17-5-27-19-51-36-109-59-170-72 7-28-15-1-27-4-85-13-172-8-253 20 11-20-17-17-16-33-8-7 17-9 25-13 161-47 346-23 482 79 78 58 135 141 170 230-29-10 5 26-28 12-5 31-2 22-13-1z m-331-288c-13-3-26-5-40-7 10-7 14-38 28-24 14 9 41 22 12 31z m190 91c-9-11-34-15-28-34 14 5 49-8 41 17-4 10 4 37-13 17z m-681 349c-77-36-156-66-239-82-17-1-5-22-6-33-2-20 19-5 30-5 82 17 160 48 235 83 4 4-11 43-20 37z m80-188c-64-68-130-134-208-185-13-6 8-18 12-27 8-19 22 2 34 8 69 48 129 108 187 170-8 8-14 53-25 34z m99-241c-49-40-108-63-165-87 17-9 33-24 51-27 52 21 102 48 145 85-18 11-11 13-24 34-3-2-5-3-7-5z m16-14c-16-3-20-23-1-24 18-2 20 23 3 24l-2 0z m304 971c14-15 20-39 43-41 34-15-14-8 0-18 112-165 202-347 260-538 11-37 18-73 24-110 1 29 25 4 28 30 17 1 3 21 3 32-15 72-39 141-67 209-8 1-17 1-21 9 15 3 16 10 6 28-23 53-48 104-75 155-12 3-9 25-21 37-41 71-85 141-137 205-18 6-37 13-56 18 4-5 9-11 13-16z m25-34c13-16 20-39 44-40 5 2 1 35-7 42-16 5-32 9-49 14 4-6 8-11 12-16z m300-643c-11-24 19-14 34-12 25 2-23 12-32 18l-1-3-1-3z m-887 344c-23 5-12-19-22-26 28-61 57-122 84-184 14 17 31-12 10-12-5-11 13-31 16-46 19-43 38-87 57-131 8 23 35 5 15-7-18-11 4-29 6-43 27-64 52-128 77-192 12-2 17-17 24 6 29-17 17 6 9 24-82 215-177 425-275 633 0-7-1-14-1-22z m-11 0c-25 1-17-36 1-29 23-6 11 38-1 29z m13 6c-19-9-48-22-10-19 18-6 27 6 16 22-2-1-4-2-6-3z m253-630c-13-13 1-38 18-23 26 2 9 26-8 27-7 3-8 4-10-4z m-176 435c-20-4-27-13-12-31-2-24 33-12 31 0-7 7-6 39-19 31z m76-182c-18-10-14-25-4-41 4-26 16-4 28 6 21 12-12 27-19 40-2-2-3-3-5-5z m88-252c-12-7 9-49 18-24 9 8-11 33-18 24z m-9-7c-91-96 112-41 42 6-30 40-25 41-42-6z m591 805c-26-26-51-58-89-66 10-10 12-42 29-34 39 13 64 46 93 73-9 11-18 21-28 31-1-1-3-3-5-4z m-81-63c-12-3 1-45 13-40 20 1 6 16 0 27-4 4-5 19-13 13z m87-196c8-11 6-36 24-32 41-1 82 0 122 0-2 14-5 28-9 42-47 1-94-4-142 0 2-3 3-7 5-10z m-9 4c-14 1-5-19 1-25 9-11 24-11 36-12-8 13-9 35-21 42-8 0-34 8-16-5z m5-6c-1 0-3 4 0 0z m142-221c-19-10-38-20-58-25 16-23-52-9-18-22 29 1 1-28 27-18 18 4 39 10 52 22 2 16 11 32 4 48-2-2-5-3-7-5z m-69-42c-5-10-14-22 2-23 11-3 22 0 24 13 10 7-25 20-26 10z m17 19c-30-4-12-6-20-25 0-6 35-6 30 6-3 7 2 26-10 19z m-11-46c0 51 0 67 0 0z m-515 773c-198-1-390-105-500-269-118-168-141-395-61-583 78-192 259-337 463-371 188-34 390 26 528 158 139 130 212 326 190 515-20 203-150 390-332 482-89 46-188 69-288 68z m8-42c162 1 323-72 431-195 25-28 51-65 71-101 26-46 45-96 57-147 23-2-4-18 6-33 12-63 12-129 1-193 9-12 17-24-2-28-11-15-11-39-19-58-61-189-229-340-424-381-132-28-275-8-394 57-30-7-15 14-35 20-50 32-95 72-133 117-11 3-13 21-24 31-55 74-89 164-104 251-3 24-4 51-5 78-1 39 3 77 9 116-16-29-24-15-11 9 16 13 23 32 27 52 59 194 228 350 427 392 40 8 81 13 122 13z m-569-428c-12-16-29-29-27-51 2-12-13-61 1-44 14 17 31 32 31 55 3 19 8 38 12 58-6-6-11-12-17-18z m-10-205c-15 1-5-45 6-42 14 2 1 22 3 32-2 7 3 15-9 10z m115-290c-12-6 13-43 23-36 18 7-5 19-9 29-5 4-7 16-14 7z m154-138c-33-7-10-17 8-26 10-16 40-8 41 1-16 7-33 23-49 25z m737 881c-11-10 12-20 17-31 16-13 19 17 0 23-6 2-11 20-17 8z m148-249c-23 6-18-10-14-26-3-22 30-22 21 1-3 6 7 30-7 25z m-8-237c-3-17-7-33-10-50 13 7 27 14 40 22-9 12-21 41-28 42-1-5-2-9-2-14z" horiz-adv-x="1000" />
<glyph glyph-name="Dumbbell" unicode="&#xe801;" d="m335 533c-39-4-79 4-118-4-31-10-45-46-39-77-21-2-44 4-64-4-37-12-58-52-53-89-1-27 2-54-1-81-58-17-81-94-49-143 12-18 30-32 50-38 3-42-8-87 9-127 18-35 61-47 97-39 20 1 8-22 12-33 5-36 44-56 78-49 33 2 69-5 101 4 22 16 9 46 12 69 0 59 0 119 0 178 171 0 342 0 512 0 1-78-2-156 2-234 10-25 41-16 61-17 37 3 82-11 111 19 16 16 17 40 16 61 36-2 80-1 102 33 25 36 10 81 15 121 0 7-5 18 6 16 64 23 78 120 25 162-9 8-20 14-32 17-3 43 8 89-7 131-17 36-61 50-99 42-19-1-8 21-11 33-6 35-45 55-78 48-33-2-67 5-99-4-22-15-8-46-12-68 0-60 0-119 0-179-170 0-341 0-512 0-1 78 2 157-1 234-5 14-21 19-34 18z m-91-51c24-3 50 0 75-1 0-193 0-387 0-580-29 2-60-5-87 3-8 20 2 42-2 64 1 169-1 340 1 509 3 4 9 5 13 5z m768-1c16-6 5-28 8-40-2-179 1-358-1-536-14-11-33-1-49-4-12 2-27-5-37 1 2 191 0 382 1 572 6 15 39 3 57 7 7 0 14 0 21 0z m-864-80c11-3 34 7 30-11 0-136 1-274 0-409-21 1-51-8-63 15-6 54 0 110-2 164 1 75-2 151 2 225 5 13 21 16 33 16z m963-1c25 1 30-29 26-48-2-119 2-237-2-356-12-22-42-14-62-16-5 21 1 43-2 65 0 118 0 237 0 355 13 0 27 0 40 0z m-229-170c0-26 0-52 0-78-170 0-341 0-512 0 0 26 0 52 0 78 171 0 342 0 512 0z m-821-75c-17 17-17 48 0 65 0-21 0-43 0-65z m1128 65c16-17 16-48-1-65 1 22 0 44 1 65z" horiz-adv-x="1000" />
<glyph glyph-name="tea" unicode="&#xe802;" d="m591 846c-25-3-36-32-56-46-36-28-37-84-14-121 22-39 67-61 87-101 13-31-8-60-30-79-22-21-31-60-6-82 33-27 79-13 118-17 55-1 111 2 165-1 33-7 38-45 29-72-5-46-20-91-19-137 0-28 28-51 55-43 32 9 50 45 85 45 48 7 86-37 94-81 9-43-13-85-18-128-8-56-36-113-85-145-27-16-63-22-91-3-35 14-70-17-78-50-14-40-1-92-41-120-33-24-78-10-117-14-111 1-223-1-334 2-38 7-61 46-59 82-22 204-46 408-68 612 0 34 36 53 67 47 65-1 131 2 196-2 36-8 50-47 44-80 3-60-10-125 19-181 17-38 46-69 81-91 38-34 56-87 50-137-2-40 5-81-3-120-11-34-50-43-82-39-43 2-87-4-130 4-34 11-43 50-38 82 1 51-9 106 19 152 20 43 67 59 100 90 16 20-9 51-32 40-41-30-89-55-113-102-26-43-30-94-27-143 1-44-8-94 22-131 25-35 71-49 113-44 46 2 92-5 138 3 54 11 92 67 86 121-3 52 5 105-5 156-12 55-47 103-95 131-38 34-56 87-50 138-3 43 7 88-6 130-16 49-68 81-118 75-68-1-136 2-203-1-54-6-94-62-84-115 24-212 46-423 71-635 13-60 75-103 136-96 132 0 264-1 396 1 60 7 109 62 109 123 4 20 1 49 19 62 47-28 110-13 152 19 53 43 85 109 94 177 10 51 31 105 12 157-16 56-65 105-125 106-38 3-77-13-103-39 6 52 20 103 23 156-1 51-48 94-99 92-76 1-153-2-229 1-7 3 7 12 10 16 43 35 55 103 23 149-25 37-70 59-86 102-11 25 13 44 29 59 13 12 38 30 26 52-5 9-14 14-24 14z" horiz-adv-x="1000" />
<glyph glyph-name="soccer" unicode="&#xe803;" d="m626 840c-340 0-616-276-616-615 0-339 276-615 616-615 339 0 615 276 615 615 0 339-276 615-615 615z m568-615c0-34-4-68-10-101l-58 101 58 101c6-33 10-66 10-101z m-26 168l-83-144-209 0-105 181 53 91 52 90 166 0c57-61 101-136 126-218z m-438-349l-209 0-105 181 105 181 209 0 105-181-105-181z m88 716c64-24 123-58 174-101l-116 0-58 101z m-66 19l83-144-52-91-53-90-209 0-52 90-53 91 83 144c41 9 83 14 127 14 43 0 85-5 126-14z m-377-120l-116 0c52 43 110 77 175 101l-59-101z m-165-48l165 0 53-90 52-91-105-181-209 0-83 144c26 82 69 157 127 218z m-152-386c0 35 3 68 9 101l58-101-58-101c-6 33-9 67-9 101z m25-167l83 143 209 0 105-181-52-91-53-90-165 0c-58 62-101 136-127 219z m351-367c-65 23-123 57-175 101l116 0 59-101z m65-20l-83 144 53 91 52 90 209 0 53-90 52-91-83-144c-41-9-83-14-126-14-44 0-86 5-127 14z m377 121l116 0c-51-44-110-78-174-101l58 101z m166 47l-166 0-52 90-53 91 105 181 209 0 83-143c-25-83-69-157-126-219z" horiz-adv-x="1000" />
<glyph glyph-name="tennis" unicode="&#xe804;" d="m628-388c-338 0-613 275-613 613 0 338 275 613 613 613 338 0 613-275 613-613 0-338-275-613-613-613z m0 1179c-312 0-566-254-566-566 0-312 254-566 566-566 312 0 566 254 566 566 0 312-254 566-566 566z m369-1033c-158 115-252 300-252 495 0 180 78 350 215 466l30-36c-125-107-198-264-198-430 0-180 87-351 233-457l-28-38z m-719-14l-29 37c136 108 215 270 215 444 0 174-79 336-216 444l30 37c148-117 233-292 233-481 0-189-85-364-233-481z" horiz-adv-x="1000" />
<glyph glyph-name="game" unicode="&#xe805;" d="m909 52c-34 3-52-47-25-68 24-23 70 1 64 34-2 19-20 35-39 34z m0 192c-34 2-52-48-25-68 24-23 70 1 64 34-2 19-20 34-39 34z m-95-96c-34 2-53-47-25-68 24-23 69 1 63 34-2 19-19 34-38 34z m191 0c-34 2-52-47-25-68 24-23 70 1 64 34-2 19-20 34-39 34z m-178 561c-12-13-36-15-41-33 3-17 17-31 19-49 8-22-7-44-29-48-48-14-100 0-147-21-39-15-68-57-61-100 1-10 3-20 6-30-96-2-191 4-287-3-137-19-254-138-269-277-16-124 49-255 159-316 112-65 264-52 362 34 13 9 21 26 39 21 35 0 70 1 104-1 95-99 256-124 376-58 116 60 187 195 167 325-17 135-129 252-264 271-73 10-147 1-220 4-34 1-69-1-101 1-12 21-20 58 8 69 53 22 113 2 164 28 42 18 66 68 54 112-6 27-18 52-34 75-2-2-3-3-5-4z m-120-343c80-1 161 2 242-3 118-16 216-125 217-245 5-117-79-230-194-258-93-23-198 10-259 85-31 10-65 0-97 4-27 0-54 0-81 0-73-94-213-124-318-68-98 50-157 167-135 276 21 118 132 212 253 209 124 0 248 0 372 0z m-350-148c-17-4-42 9-52-9-2-23-1-46-1-69-27 0-53 0-80 0 10-18-9-45 10-59 22-6 47 0 70-2 0-26 0-53 0-80 18 10 45-9 59 10 6 22 0 47 2 70 26 0 53 0 80 0-10 18 9 45-10 59-22 6-47 0-70 2 0 27 0 53 0 80-3-1-5-2-8-2z" horiz-adv-x="1000" />
<glyph glyph-name="poker" unicode="&#xe806;" d="m740 725c-27 1-45-24-53-47-5-11-22 4-32 3-53 11-105 29-159 38-29 1-49-25-51-51-58 3-115 10-172 11-29-4-46-34-43-62-5-15 7-45-13-46-60-11-121-19-180-32-26-10-37-40-29-65 43-239 83-479 126-718 10-28 44-37 71-28 163 29 327 56 490 87 42-3 82-25 120-44 24-12 53-33 80-16 28 17 32 54 49 80 99 201 199 401 297 603 10 28-11 57-37 65-150 73-299 148-449 220-5 2-10 2-15 2z m1-35c61-27 120-59 180-88 94-47 190-92 283-140 11-17-11-33-14-49-103-208-205-417-309-625-16-12-33 11-49 14-141 70-283 139-423 210-13 17 11 35 15 51 103 208 204 416 307 623 3 2 7 4 10 4z m-245-6c58-14 115-29 173-44-99-201-200-402-298-605-9-28 12-57 39-64 63-32 127-63 190-94-97 25-194 48-291 74-14 13 4 34 4 49 57 226 113 452 171 678 3 4 8 6 12 6z m-216-40c52-4 104-7 156-11-55-222-113-444-168-667-3-30 25-54 54-55 53-14 106-27 159-40-86 6-173 10-259 19-16 12-1 37-4 53 17 231 32 463 50 693 2 5 7 8 12 8z m-60-179c-13-190-29-379-40-569 3-28 32-46 59-44 111-7 223-16 335-23-132-23-264-48-396-69-20 8-11 36-18 52-39 228-81 456-118 684 7 19 35 11 51 17 44 8 88 16 131 23-1-24-3-47-4-71z m340 179c-17 1-34-13-34-31-30 11-55-28-39-52 8-15 29-20 42-16-10-15-32 0-40-14-4-18 27-12 38-19 20-5 39-10 59-15 4 17-8 21-20 28-6 4-14 19-3 9 21-17 55-1 55 26 4 17-12 33-25 37 10 22-9 48-33 47z m227-5c-18-23-52-19-72-38-19-17-5-53 21-50-12-14-29 0-43-5-10-8-3-15 8-18 26-12 51-28 79-37 9 21-22 26-21 46 1 4 9-9 15-9 26-9 47 23 36 46-10 23-18 48-10 74-4-3-8-6-13-9z m-452-24c-15-24-37-42-53-64 19-24 33-52 50-77 17 25 37 49 59 71-20 23-33 52-51 77-2-3-3-5-5-7z m-176-113c-14 2-26-10-32-20-18 21-58 8-57-21 1-35 38-51 57-75 11-12 17-28 27-41-3 39 22 71 35 105 10 23-2 53-30 52z m721-121c-32-43-87-53-134-69-38-9-74-46-63-88 9-39 58-57 93-40-22-37-68-51-108-38-11 7-26 3-28-11 12-13 38-20 56-30 50-25 100-50 150-74 2 11 7 26-9 31-34 22-54 66-40 106 2 10 5-9 9-13 16-37 70-49 100-19 29 27 23 73 8 106-18 44-35 92-21 140 2 17 11 27-13-1z m-48-405c-4-17 22-20 21-37 2-10-7 6-12 6-23 11-48-16-40-39 7-24 21-49 11-75-6-25 16 12 27 16 22 14 59 11 67 41 4 18-12 36-30 35 13 11 28 4 43 3 16 18-16 21-29 30-18 9-37 18-56 27 0-2-1-5-2-7z" horiz-adv-x="1000" />
<glyph glyph-name="chat" unicode="&#xe807;" d="m626 720c-98-1-195-20-285-55l0 0c-80-29-159-78-219-141-60-62-102-140-102-225-1-155 134-299 295-336 15-3 32-22 34-44a30-30 0 0 0 1-4c0 0 0 0-1-2-2-4-6-11-13-18-13-16-33-34-55-51-44-34-90-63-90-63a30-30 0 0 0 21-55s215 32 324 68c78 26 131 66 210 95 99 10 217 52 300 107 129 85 216 252 162 408a30-30 0 0 0-1 3c-54 112-153 192-260 243-94 46-198 68-302 70-6 0-13 0-19 0z m0-60c6 0 12 0 18 0 96-2 191-22 277-64a30-30 0 0 0 1-1c96-46 184-118 230-212 42-124-31-266-139-336a30-30 0 0 0 0 0c-74-50-190-91-278-99a30-30 0 0 0-7-2c-89-32-142-73-210-95-47-15-122-31-187-43 19 15 37 31 51 48 9 10 17 20 22 33 5 11 8 25 5 40 0-1 0-2 0-4l-1 7c0-1 0-2 1-3-7 45-38 83-81 93-133 30-249 158-248 277 0 65 32 129 85 184 53 55 125 100 197 126a30-30 0 0 0 0 0c84 32 174 50 264 51z" horiz-adv-x="1000" />
<glyph glyph-name="travel" unicode="&#xe808;" d="m598-222c-244 0-442 198-442 442 0 244 198 442 442 442 102 0 202-36 282-100 49-41 90-93 117-150 6-11 0-24-11-30-10-6-24 0-30 10-25 51-61 98-105 135-70 59-160 92-253 92-219 0-397-179-397-397 0-219 178-399 397-399 154 0 295 90 361 231 5 12 18 16 30 10 12-4 17-18 11-30-72-156-230-256-402-256z m-334 156c-132 0-225 36-251 103-27 74 27 168 153 263 11 7 24 6 32-5 7-10 6-24-5-31-105-80-156-159-138-212 30-81 237-109 534-18 12 3 24-3 28-15 3-12-3-24-15-28-126-39-242-57-338-57z m898 499c-9 0-18 6-21 15-20 52-110 79-242 73l-34 0c-12 0-23 11-23 23 0 12 11 22 23 22l33 0c156 8 258-28 285-103 4-12-2-24-14-29-3-1-4-1-7-1z m-564-439c-3 0-6 0-9 1l-110 51c-12 5-16 18-10 30 6 12 18 17 30 11l109-51c12-5 17-18 11-30-5-8-12-12-21-12z m-51-110c-3 0-6 0-9 2-12 4-17 18-11 30l51 109c6 12 18 17 30 11 12-5 17-18 11-30l-51-108c-5-9-12-14-21-14z m180 156c-3 0-6 0-9 2l-180 82c-9 5-15 15-12 26 3 10 10 18 21 18l178 6 65 39-101 107c-4 5-6 11-6 17 0 6 3 12 8 16 3 2 25 21 70 21 56 0 120-28 192-82l153 70c9 5 23 6 38 6 28 0 81-7 94-39 6-13 12-37-15-59-13-11-34-21-60-33l-427-195c-3-2-6-2-9-2z m-84 86l84-38 415 189c23 11 51 23 54 30 0 0 0 2-1 3-3 5-26 12-54 12-11 0-17-2-20-3l-165-75c-7-3-16-3-24 3-84 68-141 81-174 81-6 0-12 0-18-2l98-103c4-4 7-12 6-18-2-6-5-12-11-16l-93-57c-3-2-7-3-10-3l-87-3z" horiz-adv-x="1000" />
<glyph glyph-name="dance" unicode="&#xe809;" d="m583 849c-56-1-94-57-100-108-7-52 10-111 53-142-42-19-98-32-117-79-23-50 2-103 3-154-43 6-87 17-128 32-23 19-63 30-84 3-19-27-25-69-4-96 17-19 46-18 67-7 63-24 128-50 196-49 26 0 50 18 51 45 2 6 2 18 4 22 12-51 30-107 7-158-24-67-66-127-76-198-2-67 20-132 36-195 1-15 17-33 4-45-17-27-39-64-21-95 22-30 65-20 90 0 44 29 70 87 53 138-12 59-31 117-35 177 14 51 45 97 81 135 12 11 34 32 48 15 59-59 110-130 122-214 10-57 7-116 1-173 2-45 46-72 86-81 33-7 73-20 105-2 23 16 12 51-7 66-20 14-44 23-59 43-5 17 3 39 3 58 4 57 12 116 1 173-29 90-103 158-130 248-6 33 2 66-3 98-2 35-6 69-14 102 22-19 57-22 81-3 46 29 84 69 122 107 30 13 55 48 40 81-13 32-50 54-84 41-28-7-41-38-39-64-21-16-38-36-60-52-24 51-42 111-93 142-33 20-71 2-103-10 26 64 11 151-51 188-14 8-30 12-46 11z m2-40c43-3 65-52 66-90 3-38-15-89-57-97-43-3-68 45-71 82-5 40 13 102 62 105z m163-180c35-5 50-43 65-70 14-25 21-55 38-78 21-17 48 1 64 16 20 19 40 36 61 52 11 14-10 41 13 47 20 8 47-25 25-39-15-9-30-17-40-31-34-35-69-73-114-94-28 6-43 35-59 56-17 24-25 53-42 77-15 14-40-6-31-24 48-99 68-211 62-321 9-69 55-125 89-183 25-40 54-83 49-133 0-60-8-121-12-182 15-31 46-52 76-68 6-5-11-1-14-2-34 6-75 9-98 38-11 19 1 41-1 62 6 101-10 207-72 289-24 31-50 63-80 88-31 20-69-1-92-24-42-43-76-96-92-155-4-44 12-88 19-131 5-37 27-75 15-113-10-29-36-59-68-59-3 19 13 38 22 54 9 10 18 24 10 38-19 70-43 140-46 212 8 62 44 115 65 171 18 39 29 83 20 126-13 79-40 157-70 231-9 15-34 10-36-8 3-42 11-89 10-133-1-15 0-32-7-46-37-9-74 7-110 16-32 8-64 23-94 32-13 2-28-18-38-5-3 13-3 34 10 42 20-3 32-23 54-25 44-10 88-27 134-27 26 4 33 36 29 59-2 43-27 92 1 132 28 28 69 35 105 51 58 21 116 43 175 61 2 1 3 1 5 1z m191-240c-20 0-27-30-9-39 22-22 16-55 9-81-1-23 34-28 40-6 15 42 9 98-32 124-2 1-5 2-8 2z m63 66c-18 1-27-23-14-35 24-45 49-99 33-151-2-22 33-28 39-7 19 61-8 125-37 178-4 8-11 15-21 15z m-596-418c-22-2-24-30-31-46-15-46-19-106 21-141 18-13 41 13 27 30-31 33-16 82-2 119 11 15 6 39-15 38z m-82 0c-22-2-22-29-27-46-7-37-8-80 14-112 15-15 43 5 32 24-18 37-8 78 2 115 0 11-10 20-21 19z" horiz-adv-x="1000" />
<glyph glyph-name="pencil" unicode="&#xe80a;" d="m1035 356c-6 0-13 2-18 7l-281 281c-10 10-10 26 0 36 10 10 26 10 36 0l281-281c10-10 10-26 0-36-5-5-11-7-18-7z m-638-77c-7 0-14 2-19 7-10 10-10 27 0 36l358 358c10 10 26 10 36 0 10-10 10-26 0-36l-357-358c-5-5-12-7-18-7z m-358-664c-7 0-13 2-18 7-7 7-10 18-6 28l102 255c2 3 4 6 6 9l888 888c51 50 139 50 189 0 26-26 40-60 39-95 0-36-14-69-39-95-727-718-867-862-883-882-3-5-8-9-13-11l-256-102c-3-2-6-2-9-2z m124 266l-78-195 196 79c40 47 204 213 883 884 16 15 24 36 24 58 0 22-8 43-24 58-32 32-85 32-116 1l-885-885z m157-139c-7 0-13 3-18 8l-153 153c-10 10-10 26 0 36 10 10 26 10 36 0l153-153c10-10 10-26 0-36-5-5-12-8-18-8z" horiz-adv-x="1000" />
<glyph glyph-name="wine" unicode="&#xe80b;" d="m1089-349l-151 0 0 295c96 11 171 93 171 192l0 341c0 12-11 23-24 23l-340 0c-12 0-23-11-23-23l0-341c0-99 74-181 170-192l0-295-147 0c-12 0-23-11-23-24 0-12 11-23 23-23l344 0c12 0 23 11 23 23 0 13-11 24-23 24z m-27 804l0-209-294 0 0 209 294 0z m-294-317l0 62 294 0 0-62c0-80-66-147-147-147-80 0-147 67-147 147z m-295 347l0 334c0 12-11 23-24 23l-1 0-122 0c-13 0-24-11-24-23l0-124 0-209c-88-34-145-117-145-213l0-186 0-279 0-179c0-13 11-23 23-23l413 0c13 0 24 10 24 23l0 178 0 278 0 186c-2 96-59 178-144 214z m-124 311l76 0 0-78-76 0 0 78z m220-966l-367 0 0 232 367 0 0-232z m-367-179l0 133 367 0 0-133-367 0z m367 458l-367 0 0 164c0 80 52 151 130 175 9 3 17 12 17 21l0 203 77 0 0-203c0-11 6-18 16-21 75-25 127-95 127-175l0-164z" horiz-adv-x="1000" />
<glyph glyph-name="fishing" unicode="&#xe80c;" d="m268 359c-48 0-88-40-88-88 0-49 40-89 88-89 49 0 89 40 89 89 0 48-39 88-89 88z m0-129c-22 0-40 18-40 41 0 22 18 40 40 40 23 0 41-18 41-40 0-23-18-41-41-41z m881-12c29 30 61 70 82 114 10 21 20 46 10 72-6 19-27 42-82 42 0 0 0 0 0 0-58 3-114-21-149-40-34-20-62-45-87-71-60 96-193 148-306 165l53 123c4 8 2 17-3 24-5 6-14 11-22 9-79-11-164-53-233-115-15-13-28-26-39-39-2-3-5-5-6-8l0 0c-12-2-21-5-33-8-38-10-75-22-109-37-77-32-133-72-172-117-43-52-56-113-37-169 19-52 61-98 130-140 61-37 132-66 211-84l5-1c1 0 3 0 5-2 6-8 12-14 19-21 13-14 27-27 42-40 25-21 53-38 82-55 48-25 93-40 133-46 2 0 2 0 3 0 0 0 0 0 0 0 13 0 24 11 24 24 0 5-1 10-3 13l-51 119c112 17 246 71 305 165 24-25 52-51 84-69 33-19 86-42 143-42 3 0 6 0 8 0l1 0c0 0 0 0 0 0 55 0 74 23 82 42 10 26 0 53-9 73-18 46-47 82-81 119z m47-171c-3-6-16-9-37-9l-3 0c-3 0-5 0-8 0-36 0-79 12-119 35-29 16-53 42-79 67-6 7-11 12-18 18-6 7-14 8-22 7-8-2-15-7-18-15-45-106-198-159-315-172-8-2-14-5-18-11-3-7-4-15-1-23l46-107c-24 8-48 17-73 30-26 15-52 31-74 48-13 12-26 23-39 36-6 6-11 13-18 19-11 13-22 16-32 18l-3 0c-74 16-140 42-196 77-60 37-95 74-109 116-20 53 9 98 28 120 34 40 84 76 155 105 32 14 66 25 103 33 9 4 19 5 29 7l1 0c7 1 15 3 23 13 3 3 5 6 8 9 11 13 22 24 35 36 48 43 106 77 162 93l-46-108c-3-6-3-14 1-22 4-7 12-12 18-12 117-12 270-65 315-172 3-8 10-12 18-14 8-2 16 2 22 6 5 5 12 12 16 17 26 27 52 53 82 69 31 16 78 37 124 33 0 0 2 0 3 0 21 0 34-4 37-11 4-9-4-29-8-35-19-42-53-79-90-119 0 0 0 0 0 0 0 0 0 0 0 0 0 0 0 0 0 0 0 0 0 0 0 0 0 0 0 0 0 0 0 0 0 0 0 0l0 0c-1-3-3-5-5-8 0 0 0 0 0 0 0 0 0 0 0 0l0 0c0 0 0 0 0 0 0 0 0 0 0 0l0 0c0 0 0 0 0 0 0 0 0 0 0 0 0 0 0 0 0 0 0 0 0 0 0 0 0 0 0 0 0 0 0 0 0 0 0 0 0 0 0 0 0 0 0 0 0 0 0 0 0 0 0 0 0 0 0 0 0 0 0 0 0 0 0 0 0 0 0 0 0 0 0 0 0 0 0 0 0 0 0 0 0 0 0 0 0 0 0 0 0 0 0 0 0 0 0 0 0 0 0 0 0 0 0 0 0 0 0 0 0 0 0 0 0 0 0 0 0 0 0 0 0 0 0 0 0 0 0 0 0 0 0 0 0 0 0 0 0 0 0 0 0 0 0 0 0 0 0 0 0 0 0 0 0 0 0 0 0 0 0 0 0 0 0 0 0 0 0 0 0 0 0 0 0 0 0 0 0 0 0 0 0 0 0 0 0 0 0 0 0 0 0 0 0 0 0 0 0 0 0 0 0 0 0 0 0 0 0 0 0 0 0 0 0 0 0 0 0 0 0 0 0 0 0 0 0 0 0 0 0 0 0 0 0 0 0 0 0 0 0 0l0 0c0 0 0 0 0 0 0 0 0 0 0 0 0 0 0 0 0 0l0 0c0 0 0 0 0 0 0 0 0 0 0 0l0 0c0 0 0 0 0 0 0 0 0 0 0 0 0 0 0 0 0 0 0 0 0 0 0 0l0 0c0 0 0 0 0 0 0 0 0 0 0 0l0 0c0 0 0 0 0 0 0 0 0 0 0 0l0 0c0 0 0 0 0 0 0 0 0 0 0 0 0 0 0 0 0 0l0 0c0 0 0 0 0 0 0 0 0 0 0 0 0 0 0 0 0 0 0 0 0 0 0 0 0 0 0 0 0 0 0 0 0 0 0 0 0 0 0 0 0 0 0 0 0 0 0 0 0 0 0 0 0 0 0 0 0 0 0 0 0 0 0 0 0 0 0 0 0 0 0 0 0 0 0 0 0 0 0 0 0 0 0 0 0 0 0 0 0 0 0 0 0 0 0 0 0 0 0 0 0 0 0 0 0 0 0 0 0 0 0 0 0 0 0 0 0 0 0 0 0 0 0 0 0 0 0 0 0 0 0 0 0 0 0 0 0 0 0 0 0 0 0 0 0 0 0 0 0 0 0 0 0 0 0 0 0 0 0 0 0 0 0 0 0 0 0 0 0 0 0 0 0 0l0 0c0 0 0 0 0 0 0 0 0 0 0 0 0 0 0 0 0 0l0 0c0-5 0-8 2-11 0 0 0 0 0 0 0 0 0 0 0 0l0 0c0 0 0 0 0 0l0 0c0 0 0 0 0 0l0 0c0 0 0 0 0 0 0 0 0 0 0 0 0 0 0 0 0 0 0 0 0 0 0 0 0 0 0 0 0 0 0 0 0 0 0 0 0 0 0 0 0 0 0 0 0 0 0 0 0 0 0 0 0 0 0 0 0 0 0 0 0 0 0 0 0 0 0 0 0 0 0 0 0 0 0 0 0 0 0 0 0 0 0 0 0 0 0 0 0 0 0 0 0 0 0 0 2-2 2-4 3-5 0 0 0 0 0 0 37-40 69-77 89-119 6-10 16-29 11-39z" horiz-adv-x="1000" />
<glyph glyph-name="Camera" unicode="&#xe80d;" d="m1055-263l-860 0c-101 0-184 83-184 184l0 561c0 101 83 183 184 183l860 0c101 0 184-82 184-183l0-561c0-103-83-184-184-184z m-860 873c-71 0-128-57-128-128l0-561c0-72 57-129 128-129l860 0c72 0 129 57 129 129l0 561c0 71-57 128-129 128l-860 0z m577-768c-198 0-358 160-358 359 0 198 160 358 358 358 199 0 359-160 359-358 0-199-160-359-359-359z m0 662c-167 0-303-136-303-303 0-168 136-304 303-304 167 0 303 136 303 304 0 167-136 303-303 303z m0-552c-136 0-248 113-248 249 0 136 112 248 248 248 136 0 248-112 248-248 0-136-112-249-248-249z m0 442c-106 0-193-87-193-193 0-107 87-193 193-193 107 0 193 86 193 193 0 106-86 193-193 193z m-533-37c-55 0-101 46-101 101 0 55 46 101 101 101 55 0 101-46 101-101 0-55-46-101-101-101z m0 147c-25 0-46-20-46-46 0-26 21-46 46-46 26 0 46 20 46 46 0 26-20 46-46 46z m74 200l-147 0c-15 0-28 13-28 28 0 14 13 27 28 27l147 0c15 0 27-13 27-27 0-15-12-28-27-28z" horiz-adv-x="1000" />
<glyph glyph-name="compass" unicode="&#xe80e;" d="m689 671l-122 0c-13 0-25 11-25 25l0 122c0 14 12 26 25 26l122 0c14 0 26-12 26-26l0-122c0-14-12-25-26-25z m-96 50l71 0 0 72-71 0 0-72z m35-1116c-309 0-560 251-560 560 0 309 251 560 560 560 309 0 560-251 560-560 0-309-251-560-560-560z m0 1067c-280 0-509-227-509-509 0-282 228-509 509-509 282 0 509 227 509 509 0 282-229 509-509 509z m0-958c-247 0-449 201-449 449 0 250 202 452 449 452 248 0 450-202 450-452 0-248-202-449-450-449z m0 850c-220 0-398-180-398-401 0-220 179-399 398-399 219 0 399 180 399 399 0 222-178 401-399 401z m-193-620c-7 0-14 2-19 7-8 9-10 22-3 32l151 238c2 3 5 5 8 8l238 151c10 7 24 5 32-3 9-8 10-22 3-32l-151-238c-1-3-5-5-8-8l-238-151c-5-2-10-4-13-4z m168 245l-87-136 136 86 87 136-136-86z m68-94c-7 0-14 2-19 7l-86 87c-11 10-11 25 0 35 10 10 25 10 35 0l87-86c10-10 10-26 0-36-4-3-11-7-17-7z m-43 440c-13 0-25 12-25 25l0 61c0 14 12 26 25 26 14 0 26-12 26-26l0-61c0-13-12-25-26-25z m0-854c-13 0-25 12-25 26l0 61c0 13 12 25 25 25 14 0 26-12 26-25l0-61c0-14-12-26-26-26z m458 458l-61 0c-13 0-25 12-25 26 0 13 12 25 25 25l61 0c14 0 26-12 26-25 0-14-12-26-26-26z m-855 0l-61 0c-13 0-25 12-25 26 0 13 12 25 25 25l61 0c14 0 26-12 26-25 0-14-10-26-26-26z m397 396c-13 0-25 12-25 25l0 61c0 14 12 26 25 26 14 0 26-12 26-26l0-61c0-13-12-25-26-25z m0-854c-13 0-25 12-25 26l0 61c0 13 12 25 25 25 14 0 26-12 26-25l0-61c0-14-12-26-26-26z" horiz-adv-x="1000" />
<glyph glyph-name="book" unicode="&#xe80f;" d="m399 659c-70-2-135-33-201-56-39-16-81-31-124-21-17 7-41 6-49-14-5-30 1-62-2-93 1-193 0-387 1-581 8-30 47-25 71-29 68-6 128 34 191 52 49 19 100 33 153 25 62-8 119-35 171-68 24-9 41 16 61 23 76 41 169 64 253 31 60-17 116-47 177-61 35-5 72-3 105 9 23 16 9 48 13 71-1 206 1 412-1 617-4 20-28 27-44 19-41-10-82 0-120 16-60 22-120 49-185 58-87 9-174-21-248-65-66 40-143 68-222 67z m6-56c67-1 132-26 188-60 0-198 0-396 0-594-88 47-195 69-290 33-58-17-112-44-170-59-18-4-36-3-53 0 0 201 0 401 0 602 61-11 118 19 173 39 49 17 99 39 152 39z m433 0c63-1 121-30 180-50 45-19 95-37 145-28 0-201 0-401 0-602-58-12-112 22-166 39-60 22-123 45-189 37-56-5-109-24-159-50 0 198 0 396 0 594 56 34 122 59 189 60z" horiz-adv-x="1000" />
<glyph glyph-name="TV" unicode="&#xe810;" d="m593 104c9-29-27-13-43-17-42-2-85 3-127-2-29-7-27-54 2-60 103-2 207 0 311-1 30 2 62-4 92 2 28 10 24 56-5 60-56 2-112 0-167 1 9 29-16 25-37 24-7-3-29 6-26-7z m-435 636c-22 0-27-26-23-42 1-186-1-372 1-557 6-25 37-18 55-18 302 0 603-1 905 0 25 7 17 38 18 56-1 181 1 362-1 543-6 25-37 18-55 18-300 0-600 0-900 0z m896-60c0-165 0-331 0-497-286 0-573 0-859 0 0 166 0 332 0 497 286 0 573 0 859 0z m-154-777c-25 2-30-37-7-43 19-1 41-5 59 2 20 11 8 46-15 41-13 0-25 0-37 0z m-591 0c-24 2-30-38-6-44 19 0 40-4 58 2 20 12 8 47-15 42-12 0-25 0-37 0z m-283 107c-22 0-27-26-23-43 1-66-2-133 1-199 10-25 42-13 62-16 387 0 775-1 1162 1 25 6 17 37 18 55-1 62 2 125-1 186-10 26-42 14-62 16-386 0-772 0-1157 0z m568-60c0-46 0-92 0-138-177 0-354 0-531 0 0 46 0 92 0 138 177 0 354 0 531 0z m592 0c0-46 0-92 0-138-177 0-354 0-532 0 0 46 0 92 0 138 178 0 355 0 532 0z m-993-207c-3-15 2-39 22-38 19 3 51-10 61 14 2 10 4 26-2 31-27 0-54 0-81 0l0-4 0-3z m779 0c-4-16 2-39 22-38 19 3 51-10 61 14 2 10 4 26-2 31-27 0-54 0-81 0l0-4 0-3z" horiz-adv-x="1000" />
<glyph glyph-name="Internet" unicode="&#xe811;" d="m625 836c-246 0-446-201-446-449 0-248 200-449 446-449 247 0 447 201 447 449 0 248-200 449-447 449z m0-51c219 0 395-178 395-398 0-220-176-398-395-398-218 0-395 178-395 398 0 220 177 398 395 398z m0 51c-77 0-142-56-187-137-45-82-72-191-72-312 0-121 27-230 72-312 45-81 110-137 187-137 77 0 143 56 188 137 45 82 71 191 71 312 0 121-26 230-71 312-45 81-111 137-188 137z m0-51c52 0 103-39 143-111 39-72 65-174 65-287 0-113-26-215-65-287-40-72-91-111-143-111-52 0-103 39-142 111-40 72-66 174-66 287 0 113 26 215 66 287 39 72 90 111 142 111z m-25 41l0-878 51 0 0 878-51 0z m-342-629l0-51 734 0 0 51-734 0z m-69 216l0-52 872 0 0 52-872 0z m69 215l0-51 734 0 0 51-734 0z m-164-41c-46 0-84-38-84-85l0-661c0-47 38-85 84-85l1062 0c47 0 85 38 85 85l0 661c0 47-38 85-85 85l-136 0 0-51 136 0c20 0 34-13 34-34l0-661c0-21-14-34-34-34l-1062 0c-20 0-33 13-33 34l0 661c0 21 13 34 33 34l134 0 0 51-134 0z m506-806l0-135 51 0 0 135-51 0z m-306-110l0-51 662 0 0 51-662 0z" horiz-adv-x="1000" />
<glyph glyph-name="shopping" unicode="&#xe812;" d="m41 817c-29 0-43-41-19-58 29-15 64-15 95-24 15-8 44-1 50-18 65-242 128-484 195-725 14-28 51-15 75-18 177 0 354 0 531 0-12-30-24-61-36-92-182 0-364 1-545-1-31-4-35-52-5-61 50-5 101-1 151-2 143 0 286-2 428 0 30 8 29 45 41 67 14 41 35 80 45 121 1 28-30 38-52 33-193 0-387 0-580 0-10 36-19 71-29 107 230 1 459-1 688 1 30 5 35 51 6 61-39 6-80 1-119 3-198 0-395 0-592 0-10 38-21 77-31 116 267 0 535-1 802 1 31 4 35 52 5 62-54 4-110 0-165 1-219 0-439 0-659 0-11 39-21 78-31 117 308 0 617-1 925 1 31 4 34 52 5 61-54 5-108 1-162 2-262 0-524 0-786 0-18 65-33 131-53 196-17 23-51 18-76 27-34 7-68 16-102 22z m0-4c-32 1-38-48-8-56 45-10 90-20 135-30 66-245 130-489 197-734 14-26 49-12 72-15 179 0 357 0 536 0-13-33-26-66-39-99-182-1-365 1-548-1-30-6-28-54 3-57 190 0 380-1 571 0 28 8 27 44 39 65 14 40 34 79 45 120 1 26-29 34-49 30-194 0-388 0-583 0-10 38-20 76-30 114 230 0 461-1 691 0 29 4 31 49 3 56-102 3-206 0-309 1-133 0-267 0-400 0-11 41-22 82-33 123 268 1 537 0 806 1 37 6 24 66-13 57-270 0-539 0-809 0-11 41-22 82-33 123 310 1 620-1 929 1 29 4 31 49 3 56-107 3-215 0-322 1-208 0-417 0-625 0-18 66-34 132-54 197-17 22-50 16-74 26-34 6-67 16-101 21z m440-1055c-40 0-71-32-71-71 0-39 31-71 71-71 39 0 71 32 71 71 0 39-32 71-71 71z m0-3c37 0 67-31 67-68 0-37-30-68-67-68-38 0-68 31-68 68 0 37 30 68 68 68z m409 3c-39 0-71-32-71-71 0-39 32-71 71-71 40 0 71 32 71 71 0 39-31 71-71 71z m0-3c38 0 68-31 68-68 0-37-30-68-68-68-37 0-67 31-67 68 0 37 30 68 67 68z" horiz-adv-x="1000" />
<glyph glyph-name="coding" unicode="&#xe813;" d="m721 593l0-1-272-754 86 0 272 755-86 0z m-347-107l-2-2-21-13-328-212-18-12 0-43 17-12 327-231 25-18 0 99-257 182 257 166 0 96z m498 0l0-3 0-93 258-166-258-182 0-99 25 18 328 231 17 12 0 43-19 12-327 212-24 15z" horiz-adv-x="1000" />
<glyph glyph-name="node" unicode="&#xe814;" d="m692 838c-22 0-27-26-23-43 0-269 0-539 0-808-65 70-173 79-259 47-102-37-190-132-193-245-2-74 47-145 117-172 156-60 352 52 379 217 7 69 1 138 3 207 0 224 0 447 0 670 78-75 187-109 267-182 57-49 92-123 89-199-1-68-24-133-47-196-4-24 33-35 44-13 41 99 70 213 33 317-34 95-119 158-203 206-58 37-125 64-167 120-14 17-15 40-18 60-4 9-13 15-22 14z m-183-833c66 2 138-36 155-103 21-83-33-167-101-211-67-45-160-62-233-19-57 31-79 103-59 163 31 100 135 170 238 170z" horiz-adv-x="1000" />
<glyph glyph-name="baseball" unicode="&#xe815;" d="m628 831c-341 0-618-274-618-610 0-337 277-611 618-611 340 0 617 274 617 611 0 336-277 610-617 610z m310-138c8-5 15-10 22-15l-22 0 0 15z m-621-944c-7 4-15 9-22 14l22 0 0-14z m0 944l0-15-22 0c7 5 15 10 22 15z m-260-472c0 176 83 333 211 437l0-27 49 0 0-97-49 0 0-47 49 0 0-98-49 0 0-47 49 0 0-98-49 0 0-47 49 0 0-97-49 0 0-47 49 0 0-98-49 0 0-47 49 0 0-98-49 0 0-26c-128 103-211 261-211 437z m307-500l0 42 49 0 0 47-49 0 0 98 49 0 0 47-49 0 0 98 49 0 0 47-49 0 0 97 49 0 0 47-49 0 0 98 49 0 0 47-49 0 0 98 49 0 0 47-49 0 0 97 49 0 0 47-49 0 0 42c79 41 169 64 264 64 95 0 184-23 263-64l0-42-49 0 0-47 49 0 0-97-49 0 0-47 49 0 0-98-49 0 0-47 49 0 0-98-49 0 0-47 49 0 0-97-49 0 0-47 49 0 0-98-49 0 0-47 49 0 0-98-49 0 0-47 49 0 0-42c-79-41-168-64-263-64-95 0-185 23-264 64z m574 42l22 0c-7-5-14-10-22-14l0 14z m49 21l0 26-49 0 0 98 49 0 0 47-49 0 0 98 49 0 0 47-49 0 0 97 49 0 0 47-49 0 0 98 49 0 0 47-49 0 0 98 49 0 0 47-49 0 0 97 49 0 0 27c129-104 211-261 211-437 0-176-82-334-211-437z" horiz-adv-x="1000" />
<glyph glyph-name="basketball" unicode="&#xe816;" d="m626 843c-342 0-620-278-620-620 0-342 278-620 620-620 342 0 620 278 620 620 0 342-278 620-620 620z m571-596l-547 0 0 248c135 6 265 56 369 142 105-99 172-237 178-390z m-547 547c125-5 241-51 333-125-95-76-211-121-333-126l0 251z m-48-251c-123 4-240 48-336 125 93 75 209 121 336 126l0-251z m-372 93c105-87 236-136 372-141l0-248-548 0c6 152 73 290 176 389z m-176-437l548 0 0-249c-136-5-266-55-370-142-105 99-172 237-178 391z m548-548c-126 5-242 51-334 125 95 77 212 121 334 127l0-252z m48 252c122-5 239-49 335-125-93-75-209-122-335-127l0 252z m371-93c-105 86-235 136-371 140l0 249 547 0c-6-153-72-290-176-389z" horiz-adv-x="1000" />
<glyph glyph-name="Smoking" unicode="&#xe817;" d="m146 764l246-241-79-80-246 241 79 80m0 56l-134-137 302-296 134 137-302 296 0 0z m367-415l659-647-78-80-660 646 79 81m-1 56l-134-137 716-702 134 137-716 702 0 0z m624-486l-40 4c5 48-13 68-36 96-14 16-30 35-42 61-18 38-21 101-14 142 2 17 7 34 12 53 22 83 47 177-83 256l20 33c156-94 124-213 101-300-5-17-9-34-11-48-7-41-2-92 11-120 9-21 23-36 36-52 25-30 51-61 46-125z m111 22l-39 3c4 48-13 68-37 96-14 16-30 35-42 61-18 39-21 101-14 142 3 17 8 34 12 53 23 83 48 177-83 256l21 33c155-94 124-213 101-299-5-18-10-35-12-49-7-41-2-92 11-120 10-21 23-36 36-52 25-29 52-60 46-124z" horiz-adv-x="1000" />
<glyph glyph-name="knitting" unicode="&#xe818;" d="m565-117c-185 0-338 140-354 325-18 195 127 369 322 387 11 1 22 1 33 1 185 0 338-139 355-324 8-95-21-187-82-261-61-73-146-118-241-126-11-1-22-2-33-2z m1 687c-10 0-20 0-30-1-182-17-316-178-300-359 16-172 157-301 329-301 10 0 20 1 30 1 88 8 168 50 225 118 56 68 83 154 75 242-16 171-157 300-329 300z m-277-539l-10 24c336 130 279 512 276 528l26 4c0-4 63-418-292-556z m-28 56l-9 24c297 115 244 463 243 466l26 5c1-4 57-373-260-495z m63-102l-9 24c363 140 298 565 298 569l25 5c1-5 69-450-314-598z m542-246c0 0-1 0-1 1-7 0-13 6-12 14 3 27-5 48-23 63-43 35-145 35-261 1-150-45-238-27-262 51-7 22-5 42 4 60 16 30 50 41 52 41 375 145 308 586 308 590-2 7 3 14 10 15 7 1 14-4 15-11 1-4 71-465-325-618-6-3-55-19-39-70 19-62 96-73 230-33 128 37 234 35 284-6 25-20 36-50 33-86-1-6-6-12-13-12z m-577 292l-10 24c336 130 279 512 276 528l26 4c0-4 63-418-292-556z m-28 56l-9 24c297 115 244 463 243 466l26 5c1-4 57-373-260-495z m63-102l-9 24c363 140 298 565 298 569l25 5c1-5 69-450-314-598z m54 178c-57 15-111 41-163 77l15 21c49-34 101-59 155-73l-7-25z m239-9l-5 26c130 25 234 92 284 129l16-21c-52-38-160-108-295-134z m-184 69c-74 14-143 45-208 92l16 21c61-45 127-75 196-87l-4-26z m221 11l-6 25c138 36 236 116 237 117l16-20c-4-4-103-85-247-122z m-335-114c-33 13-67 29-98 49l13 22c31-19 62-34 95-47l-10-24z m252-32l-3 26c148 15 273 88 334 130l14-21c-77-53-199-120-345-135z m70-190l-24 10c31 70 44 142 41 212l26 1c4-74-11-149-43-223z m-139 564c-46 50-85 78-86 78l16 21c1-1 41-30 89-82l-19-17z m222-538l-24 10c30 71 43 143 39 213l26 2c4-75-10-151-41-225z m-9 343c-11 33-26 66-44 98l22 13c19-33 35-68 47-102l-25-9z m74-303l-24 10c26 67 38 134 33 201l26 1c5-70-7-141-35-212z m-15 330c-20 59-52 117-95 173l20 16c45-58 79-119 100-180l-25-9z m79-264l-25 8c19 55 27 112 25 167l26 1c2-59-6-118-26-176z m-22 293c-30 96-87 172-130 220l19 17c45-49 104-129 136-229l-25-8z m-311-427l-23 10c25 58 38 117 38 174l26 0c0-61-14-123-41-184z m-54 415c-63 102-147 163-147 163l15 21c3-2 88-64 154-170l-22-14z m-5-395l-23 10c13 31 23 62 28 94l26-5c-6-33-16-66-31-99z m-29 328c-55 114-151 184-152 184l15 21c5-3 102-74 161-194l-24-11z m-67 0c-39 67-90 115-116 138l17 20c28-24 80-74 121-144l-22-14z m213-356l-23 11c30 68 44 138 41 207l26 1c3-73-12-146-44-219z m-88 494c-61 82-127 130-127 130l15 21c3-2 69-50 132-135l-20-16z m-442-166c-6 0-11 4-13 9-2 7 2 14 8 17l338 112c7 2 14-1 17-8 2-7-2-14-8-16l-338-113c-2 0-3-1-4-1z m-37-238c-4 0-8 2-11 6-4 6-3 14 3 18l291 206c6 4 14 2 18-4 4-5 3-14-3-18l-291-205c-2-2-5-3-7-3z m374-31" horiz-adv-x="1000" />
<glyph glyph-name="glass" unicode="&#xe819;" d="m622 829c-182 1-358-120-423-292-18-46-29-95-32-144-30 0-59 0-89 0-3 29 14 59 2 86-14 17-47 5-44-19-35-207 51-431 218-562 16-12 33-24 50-35-37-69-80-135-113-205-5-33 43-57 64-28 19 24 28 54 46 79 23 39 45 78 67 118 157-77 348-79 506-7 38-65 71-133 113-195 24-21 69 4 58 37-9 31-33 56-46 86-20 35-40 71-60 106 187 112 304 333 287 551-2 25-1 54-14 76-17 16-50-3-40-26 3-21 5-41 7-62-30 0-60 0-90 0-8 182-135 352-307 410-51 18-105 27-160 26z m13-48c167-1 325-114 381-270 54-143 21-315-85-426-100-109-262-158-406-119-152 38-276 169-304 324-28 145 28 302 143 395 75 63 173 98 271 96z m29-193c-26-10-44-35-69-49-69-55-143-106-209-164-3-13 17-20 24-8 88 69 179 135 265 205 3 7-3 17-11 16z m177-47c-26-11-44-36-68-50-124-97-250-191-372-290-6-14 16-23 23-10 142 112 287 220 428 333 3 8-3 17-11 17z m22-174c-27-11-46-36-71-51-69-54-140-105-207-161-4-14 17-21 24-9 88 69 179 134 265 205 3 7-3 16-11 16z m233-22c27 0 55 0 82 0-6-204-137-398-324-481-178-81-399-58-555 61-131 98-216 256-221 420 30 0 59 0 89 0 6-186 138-360 316-417 155-52 336-15 456 98 90 82 145 198 150 319l4 0 3 0z" horiz-adv-x="1000" />
<glyph glyph-name="flower" unicode="&#xe81a;" d="m531-198c0 112 0 225 0 338-14 4-29 8-43 12-145 45-244 167-257 319-8 97 6 190 54 275 17 31 40 58 63 84 15 18 30 15 43-4 35-50 69-48 105-100 4 5 7 9 10 13 32 46 63 39 95 85 16 23 31 23 47 0 32-45 63-38 94-84 3-4 6-8 11-14 3 5 7 9 10 13 31 46 63 40 94 85 15 22 28 23 46 5 55-54 87-120 104-194 19-82 21-164-5-245-43-133-136-213-271-247-3-1-6-1-9-2-1 0-2-1-3-2 0-112 0-225 0-340 5 5 8 8 12 11 125 122 250 244 376 365 2 3 4 6 7 7 7 3 16 8 22 5 6-3 12-13 12-20 1-44 2-88 0-132 0-43 0-87-6-129-23-155-155-279-311-295-15-2-31-3-47-3-106 0-212 0-318 0-185 0-333 127-361 309-3 18-3 37-4 55 0 64 0 127 0 191 0 11 1 20 13 25 11 6 19-2 26-9 125-122 251-243 376-365 4-4 7-10 11-15 1 1 3 2 4 3z m-167 980c-13-20-25-36-35-54-47-85-61-176-47-271 14-95 61-172 143-223 99-60 205-68 315-37 97 27 170 88 206 183 49 129 32 253-40 371-6 10-14 18-21 29-5-6-7-10-10-14-32-46-64-41-96-87-18-26-35-26-52 0-31 44-62 37-93 81-2 4-6 8-9 14-5-6-8-11-11-15-31-45-62-39-94-84-14-21-32-21-47 0-13 18-26 37-38 56-23 33-46 14-71 51z m-213-681c0-55-5-111 1-165 11-114 71-197 173-250 62-32 130-32 197-30 3 0 8 7 8 10 1 17 0 33 1 50 1 12-4 21-13 29-120 116-240 233-360 350-2 2-5 4-7 6z m951 3c-5-4-7-5-9-7-111-108-220-217-334-323-33-31-47-62-40-106 0 0 0 0 0-1-1-8 2-12 11-11 30 1 60-1 90 2 124 14 209 81 258 194 34 80 20 166 24 252z m-522 26c-1-3-1-6-1-9 0-43 0-86 0-129 0-108 0-216 0-323 0-11 3-14 14-14 21 1 41 1 61 0 13-1 17 2 17 16 0 149 0 298 0 448 0 4-1 7-2 11-30 0-59 0-89 0z" horiz-adv-x="1000" />
<glyph glyph-name="cat" unicode="&#xe81b;" d="m856 274a57-57 0 0 1-57-58 57-57 0 0 1-57 58 57-57 0 0 1 57 57 57-57 0 0 1 58-57z m-368 0a57-57 0 0 1-58-58 57-57 0 0 1-57 58 57-57 0 0 1 57 57 57-57 0 0 1 58-57z m392-269c-13 9-31 6-40-8-20-28-52-46-87-46-57 0-104 47-104 105v0 10l85 72c9 8 12 21 8 32-4 12-15 19-27 19h-189c-12 0-23-7-27-19-4-11-1-24 9-32l83-71v-11c0-58-47-105-104-105-32 0-61 14-81 39-10 12-29 14-41 4-12-10-14-28-4-41 31-38 77-59 126-59 3 0 6 0 9 0 26-43 73-71 124-71 51 0 98 28 124 71 3 0 6 0 9 0 54 0 104 26 135 71 9 13 5 31-8 40z m-260-124c-25 0-48 11-64 28 26 13 48 31 64 54 16-23 38-41 64-54-17-17-40-28-64-28z m549 290v626c0 10-6 20-15 25-9 5-20 5-29 0l-323-192c-117 41-246 41-363 0l-323 192c-9 5-20 5-29 0-9-5-15-15-15-25v-626c0-303 246-549 548-549 303 0 549 246 549 549v0z m-548-491c-271 0-491 220-491 491v575l243-144c-31-15-61-34-88-55-13-10-15-28-5-41 5-7 14-11 22-11 7 0 13 2 18 6 38 29 81 53 126 70 1 1 2 1 2 1 110 42 235 42 344 0 1 0 2 0 3 0 41-16 79-37 115-63 13-9 31-6 40 6 10 13 7 31-6 41-24 17-49 33-76 46l243 144v-575c0-271-220-491-490-491z" horiz-adv-x="1000" />
<glyph glyph-name="scissors" unicode="&#xe81c;" d="m699 840c-34 0-64-24-71-57l-103-480-76-31c-30-13-47-43-44-75l-71-29c-32 35-77 56-126 56-23 0-45-5-66-13-88-37-129-137-93-225 27-65 89-106 159-106h0c22 0 45 4 66 13 50 21 84 62 99 111 8 1 17 3 25 6l70 29-15-72c-2-9-3-18-2-27-46-22-80-65-92-117-9-45-1-91 24-129 25-39 63-66 108-75 12-3 24-4 37-4h0c80 0 151 57 168 136 9 45 1 91-24 129-14 22-32 39-53 52l16 75c32 3 59 26 66 57l17 79 451 187c37 15 55 58 39 94l-29 72c-11 27-38 45-67 45-10 0-19-2-28-6l-309-128 70 329c9 39-16 78-55 86l-76 16h0c-5 1-10 2-15 2z m0-37l7-1 76-16c19-4 31-23 27-42l-118-547-8-37-19-88c-3-16-18-28-34-28-2 0-4 0-6 1-10 2-20-5-22-15l-17-81c-3 1-5 2-7 2v0c-5 2-9 3-14 4a3-3 0 0 0 0 0c-12 3-25 4-37 4h0c-7 0-14-1-21-1a3-3 0 0 0 0 0h0a3-3 0 0 0 0 0c-1-1-3-1-5-1-4-1-8-2-13-3 1 2 1 3 1 5a3-3 0 0 0 0 0l176 816c3 16 18 28 34 28z m-14-54c-15-14-6 16-15-15l-15-71c-2-10 4-20 14-22 2 0 3 0 4 0 9 0 17 6 18 14l16 71v0c2 10-5 20-15 23a3-3 0 0 0 0 0c-2 0-5 0-7 0z m-28-131c-15-14-6 16-15-15l-52-240c-2-10 5-20 15-22 1-1 2-1 4-1 8 0 16 6 18 15l52 240v1c2 9-5 19-15 22a3-3 0 0 0 0 0c-2 0-5 0-7 0z m455-115c14 0 27-8 32-21l30-72c7-18-1-38-19-46l-428-177 27 122 11 54 333 138c5 2 9 2 14 2z m-493-225c-9 0-19-3-27-7-13-7-22-19-26-33-4-15-3-30 4-43 10-17 29-29 49-29 9 0 19 3 27 7 27 15 37 49 22 76-10 18-29 29-49 29z m-104-19l-37-175-94-39c-1-1-3-1-5-2 0 4 1 7 1 10 0 3-1 5-1 8 0 4 0 8-1 12a3-3 0 0 0 0 0c0 2 0 5-1 7a3-3 0 0 0 0 0c0 5-1 9-2 13-1 2-1 4-2 6-2 6-4 13-6 19-3 6-6 13-10 19l77 32c9 4 14 14 10 24-7 18 2 37 19 45l52 21z m104-19c7-3 9-2 11-1 1-1 2-3 5-8 5-9 2-20-7-25-8-5-20-1-25 7a3-3 0 0 0 0 0c-2 5-3 9-2 14 2 5 5 9 9 11 3 2 6 2 9 2z m-411-53c43 0 83-21 108-56a3-3 0 0 0 0 0l0 0a3-3 0 0 0 0 0c3-4 6-7 8-11 3-6 6-11 8-17a3-3 0 0 0 0 0c3-5 4-11 6-17 0-1 1-3 1-4a3-3 0 0 0 0 0 3-3 0 0 0 0 0c1-6 2-11 3-16v0a3-3 0 0 0 0 0c0-1 0-2 0-2 0-5 1-11 0-17 0-2 0-3 0-5a3-3 0 0 0 0 0c0-6-1-11-2-16-9-43-38-81-81-99-16-7-34-10-51-10-55 0-104 33-125 83-28 69 5 148 73 176 17 7 34 11 52 11z m0-46c-12 0-23-3-34-7-45-19-67-71-48-116 14-34 46-55 82-55 11 0 23 2 34 7 45 18 67 71 48 116-14 33-46 55-82 55z m0-38c21 0 39-12 47-31 11-27-1-57-27-68a3-3 0 0 0 0 0c-7-2-13-4-20-4-21 0-40 13-48 32-11 26 2 57 28 67 6 3 13 4 20 4z m325-182c19-1 10 0 23-2 0 0 0 0 0 0h0c5-1 11-3 16-5 0 0 1 0 2-1a3-3 0 0 0 0 0 3-3 0 0 0 0 0c5-2 10-4 15-7 0 0 1 0 1 0 0 0 0 0 0 0 20-10 38-26 51-46 19-30 26-66 18-101-13-62-68-107-131-107-10 0-19 1-29 3-35 8-65 29-85 59-19 30-26 66-18 101 9 45 42 81 83 98 5 2 10 3 16 5 0 0 0 0 0 0a3-3 0 0 0 0 0c1 0 2 0 3 0a3-3 0 0 0 0 0 3-3 0 0 0 0 0c6 2 12 3 18 3l0 0a3-3 0 0 0 0 0c5 1 11 1 17 0z m-6-45c-41 0-78-30-86-70-11-48 20-96 68-106 6-1 12-2 19-2 41 0 78 30 86 70 11 48-20 95-68 106-6 1-12 2-19 2z m0-38c7 0 15-1 11-1 28-6 46-33 40-61-6-27-34-45-61-39a3-3 0 0 0 0 0c-28 6-46 33-40 61 5 23 26 40 50 40z" horiz-adv-x="1000" />
<glyph glyph-name="hotdog" unicode="&#xe81d;" d="m361 15l812 759c-88 87-230 87-315 0l-505-503c-71-71-84-179-40-262l-277-278c0 0-2-2-2-3 0 0 0 0 0 0-27-28-27-72 0-98 14-14 31-20 50-20 17 0 34 6 48 18 2 2 3 2 5 4l281 281c82-40 185-24 253 44l503 504c84 85 84 227-1 313z m-258-352c-2-2-4-4-4-5-10-9-25-9-36 1-10 11-10 24-3 36 2 2 5 4 7 5l272 271c5-5 8-10 14-16 6-6 15-13 22-20l-272-272z m1037 828l-503-503c-70-70-183-70-252 0-70 70-70 183 0 252l503 503c71 70 184 70 252 0 70-70 70-183 0-252z m-94 189c-9-9-22-9-31 0-22 22-41 22-63 0-7-7-5-16-2-35 5-22 10-51-14-75-24-24-53-19-75-14-19 4-29 6-34-1-7-7-5-16-2-35 5-22 10-51-14-75-24-24-53-19-75-14-19 4-29 6-34-1-7-7-5-16-2-35 5-22 10-51-14-75-24-24-53-19-75-14-19 4-29 6-34-1-7-7-5-16-2-34 5-23 10-52-14-76-23-24-53-19-75-14-19 4-29 6-34-1-22-22-22-41 0-64 8-8 8-22 0-30-9-9-22-9-31 0-39 39-39 85 0 126 24 24 53 19 75 14 19-3 30-5 35 2 7 7 5 15 1 34-5 22-10 51 14 75 24 24 53 19 75 14 19-3 29-5 35 2 6 7 5 15 1 34-5 22-10 51 14 75 24 24 53 19 75 14 19-3 29-5 35 2 6 6 5 15 1 34-5 22-10 51 14 75 24 24 53 19 75 14 19-4 29-5 35 2 6 6 5 15 1 34-5 22-10 51 14 75 39 40 86 40 127 0 7-8 7-24-2-32z" horiz-adv-x="1000" />
<glyph glyph-name="Swimming" unicode="&#xe81e;" d="m200 36c60 0 112 32 142 78 31-46 82-78 143-78 60 0 112 32 142 78 31-46 82-78 143-78 61 0 112 32 143 78 30-46 82-78 142-78 93 0 170 76 170 169 0 14-13 27-27 27-14 0-27-13-27-27 0-64-52-116-116-116-64 0-116 52-116 116 0 14-12 27-26 27-15 0-27-13-27-27 0-64-52-116-116-116-64 0-116 52-116 116 0 14-12 27-27 27-14 0-26-13-26-27 0-64-52-116-116-116-64 0-116 52-116 116 0 14-12 27-27 27-14 0-26-13-26-27 0-64-52-116-116-116-64 0-116 52-116 116 0 14-13 27-27 27-14 0-27-13-27-27 0-93 77-169 170-169z m0-214c60 0 112 32 142 78 31-46 82-78 143-78 60 0 112 32 142 78 31-46 82-78 143-78 61 0 112 32 143 78 30-46 82-78 142-78 93 0 170 76 170 169 0 14-13 27-27 27-14 0-27-13-27-27 0-64-52-116-116-116-64 0-116 52-116 116 0 14-12 27-26 27-15 0-27-13-27-27 0-64-52-116-116-116-64 0-116 52-116 116 0 14-12 27-27 27-14 0-26-13-26-27 0-64-52-116-116-116-64 0-116 52-116 116 0 14-12 27-27 27-14 0-26-13-26-27 0-64-52-116-116-116-64 0-116 52-116 116 0 14-13 27-27 27-14 0-27-13-27-27 0-93 77-169 170-169z m0-214c60 0 112 32 142 78 31-46 82-78 143-78 60 0 112 32 142 78 31-46 82-78 143-78 61 0 112 32 143 78 30-46 82-78 142-78 93 0 170 76 170 169 0 14-13 27-27 27-14 0-27-13-27-27 0-64-52-116-116-116-64 0-116 52-116 116 0 14-12 27-26 27-15 0-27-13-27-27 0-64-52-116-116-116-64 0-116 52-116 116 0 14-12 27-27 27-14 0-26-13-26-27 0-64-52-116-116-116-64 0-116 52-116 116 0 14-12 27-27 27-14 0-26-13-26-27 0-64-52-116-116-116-64 0-116 52-116 116 0 14-13 27-27 27-14 0-27-13-27-27 0-93 77-169 170-169z m570 570c14 0 27 13 27 27l0 116 231 0 0-116c0-14 13-27 27-27 14 0 27 13 27 27l0 535c0 25 20 44 45 44 24 0 44-19 44-44 0-14 13-27 27-27 14 0 27 13 27 27 0 53-45 98-98 98-54 0-99-45-99-98l0-116-231 0 0 116c0 25 19 44 44 44 25 0 45-19 45-44 0-14 12-27 27-27 14 0 26 13 26 27 0 53-44 98-98 98-53 0-98-45-98-98l0-535c0-14 13-27 27-27z m27 196l0 72 231 0 0-72-231 0z m231 196l0-71-231 0 0 71 231 0z" horiz-adv-x="1000" />
<glyph glyph-name="pant" unicode="&#xe81f;" d="m43-331l505-37c16 0 31 10 33 27l47 308 47-308c2-15 15-27 31-27 0 0 2 0 2 0l504 37c9 0 17 4 21 10 6 6 8 15 6 23l-111 879 0 162c0 17-14 31-31 31l-946 0c-17 0-31-14-31-31l0-162-107-879c0-8 2-17 6-23 8-6 16-10 24-10z m140 1046l885 0 0-103-395 0-14 33c0 12-8 22-19 26-4 2-8 2-12 2-4 0-8 0-12-2-11-4-19-16-19-26l-14-33-400 0 0 103z m-4-165l375 0-109-255c-6-17 0-33 16-41 4-3 9-3 13-3 12 0 22 7 28 19l120 280 10 0 119-280c5-12 17-19 29-19 4 0 9 0 13 3 16 6 22 24 16 41l-109 255 373 0 102-823-442-33-74 477c-2 15-15 27-31 27-16 0-29-10-31-27l-74-477-442 33 98 823z" horiz-adv-x="1000" />
<glyph glyph-name="icecream" unicode="&#xe820;" d="m877 353c19 21 24 43 24 57 0 45-33 81-77 90 5 9 6 18 6 27 0 30-20 56-48 66 0 0-2 0-2 2-1 0-78 33-99 96-12 33-6 71 17 111 4 9 3 20-3 27-8 8-18 9-27 3-9-4-225-128-218-278-2-4-2-10-2-15 0-1 0-3 0-6-42-20-71-60-71-107 0-7 0-15 2-22 1-8 4-17 7-24-33-26-52-64-52-104 0-8 1-17 3-26 6-33 25-63 55-82 0-2-1-5-1-8 0-57 152-421 183-498 9-32 32-50 64-50 31 0 54 18 63 50 31 75 183 439 183 498 0 2 0 3 0 5 36 24 57 54 57 88 2 47-25 83-64 100z m-217-670c0-1 0-1-1-3-5-15-11-18-21-18-11 0-17 3-22 18 0 2 0 2-1 3-62 146-155 381-176 459l15 0c53-18 116-27 182-27 77 0 141 9 193 27l6 0c-18-80-113-313-175-459z m160 503c-47-17-107-26-181-26-63 0-123 9-171 26-14 4-28 10-38 15l-2 1c-24 14-40 35-45 60-1 6-1 11-1 17 0 25 12 49 33 66 7-8 16-15 27-20 1 0 1-1 1-1 14-8 31-14 49-20 1 0 4-1 6-1 9 0 18 6 21 16 3 12-3 25-15 29-15 5-30 11-42 17 0 0-2 0-2 0-10 6-20 13-26 22 0 0 0 0 0 0-6 8-9 17-12 26-1 4-1 9-1 13 0 27 16 51 41 63 7-12 19-22 33-30 0 0 1 0 1-1 5-3 11-5 17-8 3 2 6 2 9 2 9 0 18 6 21 13 4 12-2 24-12 29-5 1-9 3-12 6l-11-20 9 21c-10 6-18 15-21 26 0 0 0 0 0 0 0 2-1 3-1 5 0 3-2 6-2 7 0 3 0 6 2 9 0 2 0 5 0 6-5 80 79 158 138 202-5-27-3-55 6-80 26-75 104-114 122-122 1-1 3-1 4-3 12-3 20-13 20-26 0-7-8-16-20-24-13-9-36-16-61-19-12-2-21-14-18-26 1-10 12-19 22-19 2 0 3 0 3 0 29 4 51 12 71 22 19-3 21-3 22-3 29 0 52-21 52-46 0-17-15-35-44-48 0 0 0 0 0 0l0 0c-15-8-35-15-57-20-20-5-42-8-68-9-12-2-21-12-21-24 2-12 11-21 23-21 0 0 1 0 1 0 27 1 51 6 74 10 22 5 43 12 62 20 6-2 7-2 9-2 34 0 63-27 63-58 0-29-30-56-78-72z" horiz-adv-x="1000" />
<glyph glyph-name="atom" unicode="&#xe821;" d="m993 223c27 23 51 47 73 71 88 98 117 179 85 236-15 26-51 57-136 57-57 0-129-14-209-40-7 35-16 68-25 98-41 125-97 192-162 192-65 0-121-67-161-192-10-30-19-63-26-98-80 26-152 40-209 40-85 0-121-31-136-57-32-57-3-138 86-236 21-24 45-48 72-71-27-24-51-48-72-72-89-97-118-179-86-236 15-26 51-57 136-57 57 0 129 14 209 41 7-36 16-69 26-99 40-125 96-192 161-192 65 0 121 67 162 192 9 30 18 64 25 99 80-26 152-41 209-41h0c85 0 121 31 136 57 32 57 3 139-85 236-22 24-46 48-73 72z m-770-306c-44 0-74 10-84 28-14 24-1 80 78 167 21 23 46 48 73 72 36-29 74-57 115-85 3-49 9-97 16-142-76-25-145-40-198-40z m179 257c-23 16-45 32-66 49 21 16 43 33 66 49-1-17-1-33-1-49 0-17 0-33 1-49z m3 172c-41-27-79-56-115-85-27 25-52 49-73 73-79 86-92 142-78 166 10 18 40 28 84 28 53 0 122-15 198-40-7-45-13-93-16-142z m365 40c-13 9-28 17-42 26-14 8-28 16-43 23 26 12 51 23 75 32 4-25 8-52 10-81z m-151 391c44 0 98-91 131-250-43-17-86-36-131-57-44 21-88 40-131 57 33 159 88 250 131 250z m-141-310c24-9 49-20 75-32-15-7-29-15-43-23-14-9-28-17-42-26 2 29 6 56 10 81z m-10-408c14-9 28-17 42-25 14-9 28-16 43-24-26-12-51-23-75-32-4 26-8 52-10 81z m151-391c-43 0-98 91-131 250 43 17 87 36 131 57 45-21 88-40 131-57-33-159-87-250-131-250z m141 310c-24 9-49 20-75 32 15 8 29 15 43 24 14 8 29 16 42 25-2-28-6-55-10-81z m16 154c-25-16-51-32-77-47-27-15-54-30-80-43-26 13-53 28-79 43-27 15-53 31-78 47-1 29-2 59-2 91 0 31 1 61 2 90 25 16 51 32 78 47 26 15 53 30 79 43 26-13 53-28 80-43 27-15 52-31 77-47 1-29 2-59 2-90 0-32-1-62-2-91z m239 396c44 0 74-10 84-28 14-24 1-80-77-166-22-24-47-48-74-73-35 29-74 58-115 85-3 49-9 97-16 142 76 25 145 40 198 40z m-178-256c23-17 44-33 65-49-21-17-43-33-65-49 0 16 0 32 0 49 0 16 0 32 0 49z m262-327c-10-18-40-28-84-28h0c-53 0-122 15-198 40 7 45 13 93 16 142 41 28 80 56 115 85 122-108 173-201 151-239z m-402 278a78-78 0 0 1-78-79 78-78 0 0 1-78 79 78-78 0 0 1 78 78 78-78 0 0 1 78-78z" horiz-adv-x="1000" />
<glyph glyph-name="newspaper" unicode="&#xe822;" d="m810 319h-155c-15 0-28-12-28-27l-4-92c-1-15 11-27 25-27h168c15 0 26 12 26 27l-4 92c-1 15-13 27-28 27z m318-120h-270c-5 0-9-5-9-10 0-5 4-9 9-9h270c5 0 10 4 10 9 0 5-5 10-10 10z m-270 35c-5 0-9-4-9-9 0-6 4-10 9-10h264c5 0 9 4 9 10 0 5-4 9-9 9h-264z m0 36c-5 0-9-5-9-10 0-5 4-10 9-10h257c6 0 10 5 10 10 0 5-4 10-10 10h-257z m254 16c5 0 9 4 9 9 0 6-4 10-9 10h-257c-5 0-9-4-9-10 0-5 4-9 9-9h257z m-510-87h-260c-5 0-9-5-9-10 0-5 4-9 9-9h260c5 0 9 4 9 9 0 5-4 10-9 10z m0 35h-256c-5 0-9-4-9-9 0-6 4-10 9-10h256c5 0 9 4 9 10 0 5-4 9-9 9z m0 36h-253c-6 0-10-5-10-10 0-5 4-10 10-10h253c5 0 9 5 9 10 0 5-4 10-9 10z m0 35h-252c-5 0-9-4-9-10 0-5 4-9 9-9h252c5 0 9 4 9 9 0 6-4 10-9 10z m-443 53h731c6 0 10 4 10 9 0 5-4 10-10 10h-731c-5 0-10-5-10-10 0-5 5-9 10-9z m7 36h721c6 0 10 5 10 10 0 5-4 9-10 9h-721c-6 0-10-4-10-9 0-5 4-10 10-10z m5 37h716c6 0 10 4 10 9s-4 10-10 10h-716c-6 0-10-4-10-10s4-9 10-9z m4 36h712c6 0 10 5 10 10 0 5-4 9-10 9h-712c-5 0-9-4-9-9 0-5 4-10 9-10z m134-148h-129c-14 0-28-12-31-26l-17-108c-3-14 7-26 22-26h137c15 0 28 12 30 27l12 106c2 15-9 27-24 27z m630 26h136c15 0 26 13 25 27l-9 96c-2 15-15 27-30 27h-123c-15 0-27-12-27-27l0-96c0-14 13-27 28-27z m256-392c16 0 29 13 29 29s-13 29-29 29h-1118v46h1118c16 0 29 13 29 29 0 3 0 6-1 8l-58 462c-2 14-14 25-28 25h-989c-14 0-25-9-28-23l-99-466c-1-4-1-7 0-11 0-1-1-2-1-3v-192c0-16 13-29 29-29h1146c16 0 29 13 29 29 0 15-13 28-29 28h-1118v39h1118z m-1024 571h940l52-410h-1079l87 410z" horiz-adv-x="1000" />
<glyph glyph-name="heart" unicode="&#xe823;" d="m885 746c-102 0-197-44-263-120-65 76-160 120-262 120-191 0-346-155-346-346 0-91 35-176 98-241l433-472c20-22 48-34 77-34 30 0 57 12 78 34l433 472c63 64 98 150 98 241 0 191-156 346-346 346z m201-542c0-1-1-1-1-1l-433-472c-8-9-19-13-30-13-11 0-21 4-29 13l-433 471c0 1-1 1-1 2-52 52-80 122-80 196 0 155 126 281 281 281 93 0 180-46 233-124l2-3c6-9 16-15 27-15 11 0 21 6 27 15 53 79 141 127 236 127 155 0 281-126 281-281 0-74-29-144-80-196z m-716 400c-118 0-214-96-214-215 0-17 15-32 33-32 17 0 32 15 32 32 0 83 67 150 149 150 18 0 33 15 33 32 0 18-15 33-33 33z" horiz-adv-x="1000" />
</font>
</defs>
</svg>
